# xmcd
#
# Track frame offsets: 
#        150
#        24987
#        47675
#        73455
#        96110
#        120780
#        142877
#        168555
#        189075
#        209584
#        247037
#        272185
#        299842
#
# Disc length: 4395 seconds
#
# Revision: 1
# Processed by: cddbd v1.5.2PL0 Copyright (c) Steve Scherf et al.
# Submitted via: ExactAudioCopy v0.99pb4
#
DISCID=c511290d
DTITLE=Various Artist - Acid Drops Volume 3 CD 1 (1999)
DYEAR=1999
DGENRE=Acid
TTITLE0=Andreas Krämer  vs. Kay D. Smith - Dark Clouds
TTITLE1=Pascal F.E.O.S. - Technique 
TTITLE2=Jens Mahlstedt - Gong Show 
TTITLE3=Bryan Zentz - Downloading Your Aura
TTITLE4=Mono Meltdown - Pegelfest
TTITLE5=Cominotto - Minimalistix (First Phase Mix) 
TTITLE6=Circle Sun - Genesis 
TTITLE7=L.S.G. - Shecan (Drum Mix) 
TTITLE8=DJ T-1000 - They Will Betray You 
TTITLE9=Patrick Willer - Dog On Ice (The Mat 1 Remix) 
TTITLE10=Jeroen - Vert NL (C23-99-00022)
TTITLE11=Andreas Krämer vs. Kay D. Smith - Showdown
TTITLE12=Brain 20 - Acid Motherfuckers
EXTD=
EXTT0=
EXTT1=
EXTT2=
EXTT3=
EXTT4=
EXTT5=
EXTT6=
EXTT7=
EXTT8=
EXTT9=
EXTT10=
EXTT11=
EXTT12=
PLAYORDER=
